# xmcd
#
# Track frame offsets:
#	150
#	14232
#	28716
#	39792
#	56228
#	70448
#	82028
#	95875
#	107417
#	123774
#	135522
#	145804
#	157568
#	171759
#	184664
#
# Disc length: 2718 seconds
#
# Revision: 1
# Processed by: cddbd v1.5.2PL0 Copyright (c) Steve Scherf et al.
# Submitted via: audiograbber 1.83.01
#
DISCID=c60a9c0f
DTITLE=Mahalia Jackson - World's Greatest Gospel Singer GSS5415 CD3
DYEAR=1900
DGENRE=
TTITLE0=Go Tell It On The Mountain
TTITLE1=Just As I Am
TTITLE2=Keep Your Hand On The Plow
TTITLE3=Out Of The Depths
TTITLE4=It's Real
TTITLE5=Walk Over god's Heaven
TTITLE6=Jesus Is With Me
TTITLE7=One Day
TTITLE8=I'm On My Way To Canaan
TTITLE9=Trouble in My Way
TTITLE10=Down By the Riverside
TTITLE11=You're Not Living In Vain
TTITLE12=Without A Song
TTITLE13=Closer To Me
TTITLE14=When I Wake Up In Glory
EXTD=
EXTT0=
EXTT1=
EXTT2=
EXTT3=
EXTT4=
EXTT5=
EXTT6=
EXTT7=
EXTT8=
EXTT9=
EXTT10=
EXTT11=
EXTT12=
EXTT13=
EXTT14=
PLAYORDER=
